Coordinates
version=1
nRows=20
nColumns=34
inDegrees=yes

Units are S.I. units (second, meters, Newtons, ...)
If the header above contains a line with 'inDegrees', this indicates whether rotational values are in degrees (yes) or radians (no).

endheader
time	pelvis_tilt	pelvis_list	pelvis_rotation	pelvis_tx	pelvis_ty	pelvis_tz	hip_flexion_r	hip_adduction_r	hip_rotation_r	knee_angle_r	ankle_angle_r	subtalar_angle_r	mtp_angle_r	hip_flexion_l	hip_adduction_l	hip_rotation_l	knee_angle_l	ankle_angle_l	subtalar_angle_l	mtp_angle_l	lumbar_extension	lumbar_bending	lumbar_rotation	arm_flex_r	arm_add_r	arm_rot_r	elbow_flex_r	pro_sup_r	arm_flex_l	arm_add_l	arm_rot_l	elbow_flex_l	pro_sup_l
      3.93333330	      3.30650924	     -2.42870590	     -2.58227966	     -1.40915588	      0.96861926	     -0.18128271	     -0.27752650	      3.52193386	      0.04172744	     13.64493846	      2.39024380	     -6.17486243	      0.00000000	     -8.25155382	      3.68725379	     -3.18631818	      2.23481013	     10.16780328	     -1.96851312	      0.00000000	     -9.61378704	      2.32411792	     -2.51465068	      2.88540441	     -4.54838752	      8.48147498	     23.22750924	     84.83834009	      1.77271808	     -7.53130541	     18.20159627	     24.59515395	     75.75747693
      3.95000000	      3.53741490	     -2.54631393	     -2.46756934	     -1.40580896	      0.96737713	     -0.18213917	      0.86785687	      3.60092106	     -0.30945242	     15.83638206	      2.55957932	     -6.94301915	      0.00000000	     -8.81025643	      3.64936085	     -3.28232987	      2.04512744	     10.08912330	     -1.84583162	      0.00000000	    -10.18017816	      2.30577799	     -2.57659153	      2.83508942	     -4.53505267	      8.45940969	     23.58174838	     84.71883549	      2.00457905	     -7.58438164	     18.43432816	     24.60038562	     75.80623863
      3.96666670	      3.69883034	     -2.75375734	     -2.38469554	     -1.40088881	      0.96819454	     -0.18277605	      2.15520209	      3.80686596	     -0.68495420	     17.87636840	      2.69451260	     -7.68900360	      0.00000000	     -9.43003550	      3.50558862	     -3.24229587	      1.63296143	     10.13779006	     -1.58106764	      0.00000000	    -10.62286644	      2.39398579	     -2.59890593	      2.71170819	     -4.54580808	      8.42267227	     23.91240890	     84.59430202	      2.13484533	     -7.59683849	     18.66831151	     24.59437953	     75.85587012
      3.98333330	      3.82945013	     -3.02530994	     -2.26500309	     -1.39512188	      0.97141557	     -0.18356124	      3.37065417	      4.11437243	     -1.13912740	     19.39407216	      2.55587531	     -8.10084975	      0.00000000	    -10.13746203	      3.27015919	     -3.09209152	      1.04049719	     10.12598502	     -1.30246675	      0.00000000	    -10.95143400	      2.58952338	     -2.67060917	      2.62949875	     -4.60044770	      8.38891726	     24.02824277	     84.53644695	      2.16539672	     -7.51730386	     18.78500997	     24.57666088	     75.88083098
      4.00000000	      3.92221327	     -3.13994490	     -2.07457553	     -1.38890975	      0.97477657	     -0.18448866	      4.53517232	      4.28516231	     -1.57441455	     20.50376185	      2.23037198	     -8.46136247	      0.00000000	    -10.83841016	      3.16021817	     -2.96255594	      0.43067516	      9.77826231	     -0.90658015	      0.00000000	    -11.17923605	      2.59642865	     -2.83180454	      2.42209276	     -4.57004871	      8.35726407	     24.15285768	     84.47867929	      2.18097666	     -7.51806937	     18.89501119	     24.52682423	     75.90780712
      4.01666670	      3.94797787	     -3.15124101	     -1.75083499	     -1.38208938	      0.97677631	     -0.18543451	      5.56053229	      4.36256935	     -2.05168457	     20.99925099	      1.42846782	     -8.72898575	      0.00000000	    -11.39833502	      3.10595495	     -2.97635853	      0.00000000	      9.04133170	     -0.45461561	      0.00000000	    -11.28725036	      2.49963384	     -3.12819446	      2.12687821	     -4.50646742	      8.28603642	     24.36182831	     84.39875761	      2.14406158	     -7.54911118	     19.04684430	     24.43578082	     75.94927843
      4.03333330	      3.93858278	     -3.20149387	     -1.32705849	     -1.37550107	      0.97773173	     -0.18606580	      6.49101230	      4.49668215	     -2.62429133	     20.87973652	      0.35420848	     -8.84133801	      0.00000000	    -11.71576399	      2.94372543	     -3.12894203	      0.00000000	      8.38017093	     -0.11635863	      0.00000000	    -11.28652214	      2.45525650	     -3.51540393	      1.86779407	     -4.38738254	      8.18521952	     24.60614219	     84.31976317	      2.08876964	     -7.61325015	     19.19566622	     24.33572714	     75.99427402
      4.05000000	      3.90242469	     -3.25454305	     -0.81527505	     -1.37024543	      0.97834463	     -0.18640541	      7.34598526	      4.67905661	     -3.08582761	     20.00637173	     -0.52800304	     -8.86920736	      0.00000000	    -11.98291518	      2.74700591	     -3.33016321	      0.00000000	      7.64134925	      0.16999973	      0.00000000	    -11.21472368	      2.40622251	     -3.97096734	      1.58958012	     -4.23658472	      8.06488650	     24.83909263	     84.24540527	      2.00584692	     -7.70609094	     19.33887611	     24.23364316	     76.04066006
      4.06666670	      3.85913069	     -3.31284287	     -0.26382523	     -1.36599497	      0.97906218	     -0.18676451	      8.24339288	      4.88199296	     -3.48893646	     18.48214453	     -1.16909410	     -8.84039336	      0.00000000	    -12.18986801	      2.54404538	     -3.48503802	      0.00000000	      7.00715753	      0.40218923	      0.00000000	    -11.23143177	      2.40825141	     -4.48972099	      1.37861513	     -4.11664765	      7.89735183	     25.08357434	     84.16325694	      1.90508480	     -7.79682171	     19.50684703	     24.13011922	     76.09671900
      4.08333330	      3.82822788	     -3.34146846	      0.26796642	     -1.36130356	      0.97993794	     -0.18709433	      9.09752183	      5.05217492	     -3.86453672	     16.41057622	     -1.57373720	     -8.68755593	      0.00000000	    -12.35678599	      2.38343727	     -3.54770942	      0.00000000	      6.61688688	      0.59761712	      0.00000000	    -11.32108469	      2.38431155	     -5.01354029	      1.26651642	     -3.95553608	      7.71685454	     25.31787728	     84.08380138	      1.86840180	     -7.93184098	     19.67300693	     24.05713343	     76.15660505
      4.10000000	      3.82304301	     -3.36008232	      0.80696224	     -1.35608517	      0.98037343	     -0.18759359	      9.83427127	      5.13818297	     -4.41340984	     14.13017623	     -1.96214765	     -8.31090708	      0.00000000	    -12.52883036	      2.24151177	     -3.47746253	      0.00000000	      6.67457778	      0.85682225	      0.00000000	    -11.50673437	      2.42368024	     -5.71292748	      1.38030218	     -3.82009660	      7.37902160	     25.68105028	     83.95720416	      1.80986429	     -8.04592505	     19.96429990	     24.01911437	     76.26286021
      4.11666670	      3.80844561	     -3.32071478	      1.26878579	     -1.35035802	      0.98030016	     -0.18781702	     10.45992375	      5.13640248	     -4.77149241	     11.92759667	     -2.00346126	     -7.77150965	      0.00000000	    -12.75449789	      2.16958168	     -3.31065302	      0.00000000	      7.14301644	      1.17139250	      0.00000000	    -11.68891681	      2.33358395	     -6.22559155	      1.43117515	     -3.66146191	      7.09384174	     25.93654283	     83.85900593	      1.74286370	     -8.21509234	     20.20315977	     24.03966041	     76.35716327
      4.13333330	      3.83705050	     -3.30525317	      1.77178907	     -1.34356123	      0.98003053	     -0.18810352	     11.00866760	      5.09332151	     -5.16964662	     10.05864077	     -1.69939322	     -6.94886218	      0.00000000	    -13.14058677	      2.05515834	     -3.16842478	      0.00000000	      8.06703860	      1.64730942	      0.00000000	    -11.95820695	      2.33208213	     -6.85213788	      1.49713343	     -3.52229474	      6.71589194	     26.22627758	     83.74779702	      1.62432803	     -8.42388516	     20.49416992	     24.11362717	     76.47886445
      4.15000000	      3.91167757	     -3.34672696	      2.25062855	     -1.33571590	      0.97978324	     -0.18824874	     11.48571773	      5.08540046	     -5.45964641	      8.46593557	     -1.05637340	     -5.93822083	      0.00000000	    -13.72831257	      1.87285011	     -3.12010528	      0.00000000	      9.07266528	      2.20555270	      0.00000000	    -12.27219654	      2.38717236	     -7.39036636	      1.49802027	     -3.40179190	      6.29667162	     26.47463747	     83.64833719	      1.47892135	     -8.62760948	     20.77012695	     24.22683453	     76.60684349
      4.16666670	      3.96633490	     -3.47855999	      2.67031971	     -1.32804030	      0.97929215	     -0.18848487	     11.97628069	      5.14073960	     -5.51984973	      6.97095551	     -0.54914319	     -5.16400072	      0.00000000	    -14.39276183	      1.62803732	     -3.01067781	      0.00000000	      9.91445459	      2.54253277	      0.00000000	    -12.53032457	      2.62393052	     -7.77431962	      1.53824338	     -3.35920068	      5.98931809	     26.67569958	     83.59517433	      1.31039313	     -8.68115358	     20.95106858	     24.25888081	     76.69544298
      4.18333330	      4.07839715	     -3.65701239	      3.12628159	     -1.32064072	      0.97870198	     -0.18868495	     12.33184111	      5.22214803	     -5.67724574	      5.39105972	     -0.34110926	     -4.31129989	      0.00000000	    -15.09449733	      1.32207945	     -3.02024903	      0.00000000	     10.31826271	      2.84694322	      0.00000000	    -12.86453256	      2.94379491	     -8.25088313	      1.57403102	     -3.32233369	      5.67741749	     26.89498227	     83.55745773	      1.21876058	     -8.76346174	     21.10711574	     24.26738600	     76.78255916
      4.20000000	      4.03891538	     -3.71623113	      3.49076146	     -1.31287845	      0.97731259	     -0.18870714	     12.87505308	      5.17217365	     -5.55869230	      3.99191425	     -0.29851088	     -4.05426111	      0.00000000	    -15.52204836	      1.17538301	     -3.11673087	      0.00000000	     10.23060098	      2.86682069	      0.00000000	    -13.01095425	      3.01045504	     -8.41029761	      1.60919629	     -3.30472208	      5.61433925	     26.94739625	     83.55220696	      1.35698190	     -8.85369283	     21.11793824	     24.28969722	     76.79853978
      4.21666670	      4.48197137	     -3.86486615	      3.94117576	     -1.30495823	      0.97603684	     -0.18928052	     12.66232677	      5.20753819	     -6.16429647	      2.36648488	     -1.06707985	     -3.19199978	      0.00000000	    -16.34050615	      0.87995850	     -3.22853466	      0.00000000	      9.71477213	      2.90626448	      0.00000000	    -13.80288700	      3.41645791	     -8.96870160	      1.83369017	     -3.27114095	      5.27188393	     27.16452179	     83.52617980	      1.34620030	     -8.88866755	     21.30738660	     24.23074280	     76.89898808
      4.23333330	      4.68046141	     -3.81378434	      4.21558387	     -1.29690737	      0.97363137	     -0.18935438	     12.71657465	      5.06651029	     -6.28747211	      1.08318373	     -1.57866650	     -2.77105414	      0.00000000	    -16.82946811	      0.81653139	     -3.39856576	      0.00000000	      8.94626879	      2.87228175	      0.00000000	    -14.20125393	      3.44625199	     -9.14595302	      1.85589426	     -3.21959220	      5.12334212	     27.18524275	     83.52173710	      1.41524842	     -8.97710939	     21.38200831	     24.21849274	     76.94613369
      4.25000000	      5.01841930	     -3.78339898	      4.46551645	     -1.28850849	      0.97101246	     -0.18927144	     12.59087056	      4.98136535	     -6.57627222	      0.07679958	     -2.26084351	     -2.49735264	      0.00000000	    -17.45680814	      0.68441978	     -3.61128324	      0.00000000	      8.14718067	      2.64506948	      0.00000000	    -14.82270443	      3.57087715	     -9.39411731	      2.06317422	     -3.19696209	      4.91277419	     27.22675424	     83.51393030	      1.57244473	     -9.03021945	     21.49089491	     24.20916612	     77.00931614
